<svg xmlns="http://www.w3.org/2000/svg" width="24" height="21"><path data-name="Stroke 1814" d="M5.5 7.5H2A1.5 1.5 0 0 0 .5 9v3A1.5 1.5 0 0 0 2 13.5h3.5l7 7V.5Z" fill="none" stroke="#000" stroke-linecap="round" stroke-linejoin="round" stroke-miterlimit="10"/><path data-name="Stroke 1815" d="M20 2.5a10.894 10.894 0 0 1 3.5 8 10.894 10.894 0 0 1-3.5 8" fill="none" stroke="#000" stroke-linecap="round" stroke-linejoin="round" stroke-miterlimit="10"/><path data-name="Stroke 1816" d="M17.5 4.5a7.535 7.535 0 0 1 2.977 6 7.535 7.535 0 0 1-2.977 6" fill="none" stroke="#000" stroke-linecap="round" stroke-linejoin="round" stroke-miterlimit="10"/><path data-name="Stroke 1817" d="M15.5 7c2.677 1.947 2.669 5.061 0 7" fill="none" stroke="#000" stroke-linecap="round" stroke-linejoin="round" stroke-miterlimit="10"/></svg>