<svg xmlns="http://www.w3.org/2000/svg" width="381" height="226" viewBox="0 0 381 226"><defs><style>.a,.p,.q{fill:#fff;}.b{fill:#ced7e2;}.c{fill:#fb5f57;}.d{fill:#fbbc2e;}.e{fill:#28c840;}.f{fill:#dfe5ec;}.g,.i{fill:#0ec4af;}.h{fill:#f2f5f7;}.i{opacity:0.649;}.j{fill:#f2f4f7;}.k,.l,.m,.n,.t{fill:#2b50ed;}.l{opacity:0.745;}.m{opacity:0.353;}.n{opacity:0.123;}.o{fill:#d5dbf3;opacity:0.269;}.p{font-size:10px;}.p,.q{font-family:SourceHanSansCN-Normal, Source Han Sans CN;}.q{font-size:9px;}.r{fill:#fafafc;}.s,.u{fill:none;}.s,.t{stroke:#2b50ec;}.s{stroke-width:2px;stroke-dasharray:7 7;}.t{stroke-linecap:round;stroke-linejoin:round;stroke-width:3px;}.v,.w{stroke:none;}.w{fill:#fff;}</style></defs><g transform="translate(-770 -1226)"><g transform="translate(0 -2)"><g transform="translate(-432 230)"><g transform="translate(1253 1034)"><rect class="a" width="278" height="186" rx="5" transform="translate(0)"/><path class="b" d="M5,0H273a5,5,0,0,1,5,5V21a0,0,0,0,1,0,0H0a0,0,0,0,1,0,0V5A5,5,0,0,1,5,0Z" transform="translate(0)"/><circle class="c" cx="5.5" cy="5.5" r="5.5" transform="translate(10 5)"/><circle class="d" cx="5.5" cy="5.5" r="5.5" transform="translate(26 5)"/><ellipse class="e" cx="5" cy="5.5" rx="5" ry="5.5" transform="translate(42 5)"/></g></g><circle class="f" cx="9.86" cy="9.86" r="9.86" transform="translate(834 1305.421)"/><circle class="f" cx="9.86" cy="9.86" r="9.86" transform="translate(834 1369.14)"/><circle class="g" cx="9.86" cy="9.86" r="9.86" transform="translate(975.925 1337.233)"/><path class="h" d="M67.324,96s-.66,2.573-1.98,3.217c0,0,5.942-.643,7.262-3.217Zm86.69-16H66a1.913,1.913,0,0,0-2,1.852V94.718a1.989,1.989,0,0,0,2,1.945h88.01a1.989,1.989,0,0,0,2-1.945V81.852A1.913,1.913,0,0,0,154.014,80Z" transform="translate(797.197 1225.421)"/><path class="h" d="M67.324,96s-.66,2.573-1.98,3.217c0,0,5.942-.643,7.262-3.217Zm86.69-16H66a1.913,1.913,0,0,0-2,1.852V94.718a1.989,1.989,0,0,0,2,1.945h88.01a1.989,1.989,0,0,0,2-1.945V81.852A1.913,1.913,0,0,0,154.014,80Z" transform="translate(797.197 1289.14)"/><rect class="f" width="61" height="4" rx="2" transform="translate(1022 1305)"/><rect class="f" width="43" height="4" rx="2" transform="translate(1022 1325)"/><rect class="f" width="61" height="4" rx="2" transform="translate(1022 1353)"/><rect class="f" width="61" height="4" rx="2" transform="translate(1022 1391)"/><rect class="f" width="61" height="4" rx="2" transform="translate(1022 1315)"/><rect class="f" width="61" height="4" rx="2" transform="translate(1022 1343)"/><rect class="f" width="61" height="4" rx="2" transform="translate(1022 1381)"/><rect class="f" width="43" height="4" rx="2" transform="translate(1022 1363)"/><rect class="f" width="43" height="4" rx="2" transform="translate(1022 1401)"/><path class="i" d="M152.693,96s.66,2.573,1.98,3.217c0,0-5.942-.643-7.262-3.217ZM66,80h88.01a1.913,1.913,0,0,1,2,1.852V94.718a1.989,1.989,0,0,1-2,1.945H66a1.989,1.989,0,0,1-2-1.945V81.852A1.913,1.913,0,0,1,66,80Z" transform="translate(811.364 1257.778)"/><g class="j" transform="translate(809.706 1403.32)"><path class="v" d="M 302.5854187011719 36.1804313659668 L 5.709167957305908 36.1804313659668 C 3.388209819793701 36.1804313659668 1.500001430511475 34.2922248840332 1.500001430511475 31.97130584716797 L 1.500001430511475 5.709139823913574 C 1.500001430511475 3.38822340965271 3.388209819793701 1.500015020370483 5.709167957305908 1.500015020370483 L 302.5854187011719 1.500015020370483 C 304.9063720703125 1.500015020370483 306.7945861816406 3.38822340965271 306.7945861816406 5.709139823913574 L 306.7945861816406 31.97130584716797 C 306.7945861816406 34.2922248840332 304.9063720703125 36.1804313659668 302.5854187011719 36.1804313659668 Z"/><path class="w" d="M 5.70916748046875 3.000015258789062 C 4.21533203125 3.000015258789062 3 4.215305328369141 3 5.709140777587891 L 3 31.97130584716797 C 3 33.46514129638672 4.21533203125 34.6804313659668 5.70916748046875 34.6804313659668 L 302.5854187011719 34.6804313659668 C 304.0792541503906 34.6804313659668 305.2945861816406 33.46514129638672 305.2945861816406 31.97130584716797 L 305.2945861816406 5.709140777587891 C 305.2945861816406 4.215305328369141 304.0792541503906 3.000015258789062 302.5854187011719 3.000015258789062 L 5.70916748046875 3.000015258789062 M 5.70916748046875 1.52587890625e-05 L 302.5854187011719 1.52587890625e-05 C 305.7384948730469 1.52587890625e-05 308.2945861816406 2.556056976318359 308.2945861816406 5.709140777587891 L 308.2945861816406 31.97130584716797 C 308.2945861816406 35.1243896484375 305.7384948730469 37.6804313659668 302.5854187011719 37.6804313659668 L 5.70916748046875 37.6804313659668 C 2.55609130859375 37.6804313659668 0 35.1243896484375 0 31.97130584716797 L 0 5.709140777587891 C 0 2.556056976318359 2.55609130859375 1.52587890625e-05 5.70916748046875 1.52587890625e-05 Z"/></g><rect class="k" width="63" height="25" rx="5" transform="translate(802 1401)"/><rect class="l" width="50" height="18" rx="5" transform="translate(880 1414)"/><rect class="m" width="49" height="18" rx="5" transform="translate(940 1414)"/><rect class="n" width="50" height="18" rx="5" transform="translate(998 1414)"/><rect class="o" width="50" height="18" rx="5" transform="translate(1057 1414)"/><text class="p" transform="translate(833 1417)"><tspan x="-20" y="0">媒介购买</tspan></text><text class="q" transform="translate(905 1426)"><tspan x="-18" y="0">运动服饰</tspan></text><text class="q" transform="translate(964 1426)"><tspan x="-18" y="0">母婴用品</tspan></text><text class="q" transform="translate(1023 1426)"><tspan x="-18" y="0">家居园艺</tspan></text><text class="q" transform="translate(1082 1426)"><tspan x="-18" y="0">童装童鞋</tspan></text><g transform="translate(-23.235 -26.235)"><circle class="k" cx="28" cy="28" r="28" transform="translate(1032.235 1261.235)"/><path class="r" d="M55.129,69.4q.556-.72,1.113-1.342a12.386,12.386,0,0,1,.912-1.048q.479-.491.726-.72a5.007,5.007,0,0,1,.726-.524,2.021,2.021,0,0,1,1.035-.229H72.992a2.911,2.911,0,0,1,.927.18,2.474,2.474,0,0,1,1.02.737q.247.327.649.818t.773.949q.433.557.865,1.179Zm25.094,9.789a2.545,2.545,0,0,1-.649,1.768,2.367,2.367,0,0,1-1.854.72H54.882a2.478,2.478,0,0,1-1.87-.72,2.448,2.448,0,0,1-.7-1.768V74.506a2.748,2.748,0,0,1,.618-1.8,2.455,2.455,0,0,1,2.009-.753H77.689a2.308,2.308,0,0,1,1.978.753,2.946,2.946,0,0,1,.556,1.8ZM68.572,76.831a.674.674,0,0,0-.742-.786H64.709a.731.731,0,0,0-.556.229.781.781,0,0,0-.216.557.939.939,0,0,0,.232.622.74.74,0,0,0,.541.2h3.121Q68.541,77.649,68.572,76.831ZM80.13,91.04a2.45,2.45,0,0,1-.757,1.8,2.518,2.518,0,0,1-1.931.72H54.789a2.536,2.536,0,0,1-1.777-.737,2.664,2.664,0,0,1-.788-2.046V86.391a2.689,2.689,0,0,1,.634-1.817,2.533,2.533,0,0,1,2.024-.737H77.565a2.41,2.41,0,0,1,1.932.737,2.643,2.643,0,0,1,.634,1.784ZM68.48,88.715a.815.815,0,0,0-.2-.557.683.683,0,0,0-.541-.229H64.617a.731.731,0,0,0-.556.229.824.824,0,0,0,0,1.113.731.731,0,0,0,.556.229h3.121a.683.683,0,0,0,.541-.229A.815.815,0,0,0,68.48,88.715Z" transform="translate(994.011 1209.686)"/></g><path class="s" d="M-2163.874-6148.056h-22.507v-74h200.567" transform="translate(2980.957 7470.056)"/><path class="t" d="M0,12.318l6.159-6.2L0,0Z" transform="translate(995.144 1241.841)"/></g><rect class="u" width="381" height="226" transform="translate(770 1226)"/></g></svg>